<svg width="77" height="30" viewBox="0 0 77 30" fill="none" xmlns="http://www.w3.org/2000/svg">
<rect x="0.5" y="0.5" width="76" height="29" rx="14.5" fill="white"/>
<rect x="0.5" y="0.5" width="76" height="29" rx="14.5" stroke="#1C4980"/>
<g clip-path="url(#clip0_0_582)">
<path d="M16.0003 9.10614L13.6433 11.4632L14.8218 12.6417L17.1788 10.2847C18.1511 9.31238 19.7421 9.31238 20.7144 10.2847C21.6867 11.2569 21.6867 12.8479 20.7144 13.8202L18.3574 16.1772L19.5359 17.3557L21.8929 14.9987C23.5192 13.3724 23.5192 10.7325 21.8929 9.10614C20.2665 7.4798 17.6267 7.4798 16.0003 9.10614ZM17.1788 17.3557L14.8218 19.7127C13.8496 20.685 12.2586 20.685 11.2863 19.7127C10.314 18.7405 10.314 17.1495 11.2863 16.1772L13.6433 13.8202L12.4648 12.6417L10.1078 14.9987C8.48143 16.625 8.48143 19.2649 10.1078 20.8913C11.7341 22.5176 14.374 22.5176 16.0003 20.8913L18.3574 18.5342L17.1788 17.3557ZM13.0541 16.7665L17.7681 12.0524L18.9466 13.2309L14.2326 17.945L13.0541 16.7665Z" fill="#1C4980"/>
</g>
<path d="M36.6719 12.4929C36.6188 12.0223 36.4001 11.6577 36.0156 11.3991C35.6312 11.1373 35.1473 11.0064 34.5639 11.0064C34.1463 11.0064 33.785 11.0727 33.4801 11.2053C33.1752 11.3345 32.9382 11.5135 32.7692 11.7422C32.6035 11.9676 32.5206 12.2244 32.5206 12.5128C32.5206 12.7547 32.5769 12.9635 32.6896 13.1392C32.8056 13.3149 32.9564 13.4624 33.142 13.5817C33.331 13.6977 33.5331 13.7955 33.7486 13.875C33.964 13.9512 34.1712 14.0142 34.37 14.0639L35.3643 14.3224C35.6892 14.402 36.0223 14.5097 36.3636 14.6456C36.705 14.7815 37.0215 14.9605 37.3132 15.1825C37.6049 15.4046 37.8402 15.6797 38.0192 16.0078C38.2015 16.3359 38.2926 16.7287 38.2926 17.1861C38.2926 17.7628 38.1435 18.2749 37.8452 18.7223C37.5502 19.1697 37.121 19.5227 36.5575 19.7812C35.9974 20.0398 35.3196 20.169 34.5241 20.169C33.7618 20.169 33.1023 20.0481 32.5455 19.8061C31.9886 19.5642 31.5528 19.2211 31.2379 18.777C30.9231 18.3295 30.7491 17.7992 30.7159 17.1861H32.2571C32.2869 17.554 32.4063 17.8606 32.6151 18.1058C32.8272 18.3478 33.0973 18.5284 33.4254 18.6477C33.7569 18.7637 34.1198 18.8217 34.5142 18.8217C34.9484 18.8217 35.3345 18.7538 35.6726 18.6179C36.014 18.4787 36.2824 18.2865 36.478 18.0412C36.6735 17.7926 36.7713 17.5026 36.7713 17.1712C36.7713 16.8696 36.6851 16.6226 36.5128 16.4304C36.3438 16.2382 36.1134 16.0791 35.8217 15.9531C35.5334 15.8272 35.2069 15.7161 34.8423 15.62L33.6392 15.2919C32.8239 15.0698 32.1776 14.7434 31.7003 14.3125C31.2263 13.8816 30.9893 13.3116 30.9893 12.6023C30.9893 12.0156 31.1484 11.5036 31.4666 11.0661C31.7848 10.6286 32.2157 10.2888 32.7592 10.0469C33.3028 9.80161 33.916 9.67898 34.5987 9.67898C35.2881 9.67898 35.8963 9.79995 36.4233 10.0419C36.9536 10.2839 37.3712 10.617 37.6761 11.0412C37.9811 11.4621 38.1402 11.946 38.1534 12.4929H36.6719ZM41.4956 15.4659V20H40.0091V9.81818H41.4757V13.6065H41.5701C41.7491 13.1955 42.0225 12.8691 42.3904 12.6271C42.7583 12.3852 43.2389 12.2642 43.8322 12.2642C44.3559 12.2642 44.8133 12.3719 45.2044 12.5874C45.5988 12.8028 45.9037 13.1243 46.1191 13.5518C46.3379 13.9761 46.4473 14.5064 46.4473 15.1428V20H44.9608V15.3217C44.9608 14.7616 44.8166 14.3274 44.5282 14.0192C44.2399 13.7076 43.8388 13.5518 43.3251 13.5518C42.9738 13.5518 42.6589 13.6264 42.3805 13.7756C42.1054 13.9247 41.8883 14.1435 41.7292 14.4318C41.5734 14.7169 41.4956 15.0616 41.4956 15.4659ZM50.6532 20.169C50.1693 20.169 49.7318 20.0795 49.3407 19.9006C48.9496 19.7183 48.6397 19.4548 48.411 19.1101C48.1857 18.7654 48.073 18.3428 48.073 17.8423C48.073 17.4115 48.1558 17.0568 48.3216 16.7784C48.4873 16.5 48.711 16.2796 48.9927 16.1172C49.2744 15.9548 49.5893 15.8321 49.9373 15.7493C50.2853 15.6664 50.64 15.6035 51.0012 15.5604C51.4586 15.5073 51.8298 15.4643 52.1149 15.4311C52.3999 15.3946 52.6071 15.3366 52.7363 15.2571C52.8656 15.1776 52.9302 15.0483 52.9302 14.8693V14.8345C52.9302 14.4003 52.8076 14.0639 52.5623 13.8253C52.3204 13.5866 51.9591 13.4673 51.4785 13.4673C50.978 13.4673 50.5836 13.5784 50.2953 13.8004C50.0102 14.0192 49.813 14.2628 49.7037 14.5312L48.3066 14.2131C48.4724 13.7491 48.7143 13.3745 49.0325 13.0895C49.354 12.8011 49.7235 12.5923 50.1412 12.4631C50.5588 12.3305 50.9979 12.2642 51.4586 12.2642C51.7636 12.2642 52.0867 12.3007 52.4281 12.3736C52.7728 12.4432 53.0943 12.5724 53.3926 12.7614C53.6942 12.9503 53.9411 13.2204 54.1333 13.5717C54.3256 13.9197 54.4217 14.3722 54.4217 14.929V20H52.97V18.956H52.9103C52.8142 19.1482 52.67 19.3371 52.4778 19.5227C52.2856 19.7083 52.0386 19.8625 51.737 19.9851C51.4354 20.1077 51.0742 20.169 50.6532 20.169ZM50.9764 18.9759C51.3874 18.9759 51.7387 18.8946 52.0304 18.7322C52.3253 18.5698 52.5491 18.3577 52.7015 18.0959C52.8573 17.8307 52.9352 17.5473 52.9352 17.2457V16.2614C52.8822 16.3144 52.7794 16.3641 52.627 16.4105C52.4778 16.4536 52.3071 16.4917 52.1149 16.5249C51.9226 16.5547 51.7354 16.5829 51.5531 16.6094C51.3708 16.6326 51.2183 16.6525 51.0957 16.669C50.8074 16.7055 50.5439 16.7668 50.3052 16.853C50.0699 16.9392 49.881 17.0634 49.7385 17.2259C49.5993 17.3849 49.5297 17.5971 49.5297 17.8622C49.5297 18.2301 49.6655 18.5085 49.9373 18.6974C50.2091 18.883 50.5555 18.9759 50.9764 18.9759ZM56.4016 20V12.3636H57.8384V13.5767H57.918C58.0572 13.1657 58.3024 12.8426 58.6538 12.6072C59.0084 12.3686 59.4094 12.2493 59.8569 12.2493C59.9497 12.2493 60.0591 12.2526 60.185 12.2592C60.3143 12.2659 60.4154 12.2741 60.4883 12.2841V13.706C60.4286 13.6894 60.3226 13.6712 60.1701 13.6513C60.0176 13.6281 59.8652 13.6165 59.7127 13.6165C59.3614 13.6165 59.0482 13.6911 58.7731 13.8402C58.5013 13.986 58.2859 14.1899 58.1268 14.4517C57.9677 14.7102 57.8881 15.0052 57.8881 15.3366V20H56.4016ZM64.7924 20.1541C64.0401 20.1541 63.3921 19.9934 62.8485 19.6719C62.3083 19.3471 61.8907 18.8913 61.5957 18.3047C61.304 17.7147 61.1582 17.0237 61.1582 16.2315C61.1582 15.4493 61.304 14.7599 61.5957 14.1634C61.8907 13.5668 62.3017 13.1011 62.8287 12.7663C63.359 12.4316 63.9788 12.2642 64.688 12.2642C65.1189 12.2642 65.5365 12.3355 65.9409 12.478C66.3452 12.6205 66.7082 12.8442 67.0297 13.1491C67.3511 13.4541 67.6047 13.8501 67.7903 14.3374C67.9759 14.8213 68.0687 15.4096 68.0687 16.1023V16.6293H61.9984V15.5156H66.612C66.612 15.1245 66.5325 14.7782 66.3734 14.4766C66.2143 14.1716 65.9906 13.9313 65.7022 13.7557C65.4172 13.58 65.0824 13.4922 64.698 13.4922C64.2804 13.4922 63.9158 13.5949 63.6042 13.8004C63.296 14.0026 63.0574 14.2678 62.8883 14.5959C62.7226 14.9207 62.6397 15.2737 62.6397 15.6548V16.5249C62.6397 17.0353 62.7292 17.4695 62.9082 17.8274C63.0905 18.1854 63.344 18.4588 63.6689 18.6477C63.9937 18.8333 64.3732 18.9261 64.8074 18.9261C65.0891 18.9261 65.3459 18.8864 65.5779 18.8068C65.81 18.724 66.0105 18.6013 66.1795 18.4389C66.3485 18.2765 66.4778 18.076 66.5673 17.8374L67.9743 18.0909C67.8616 18.5052 67.6594 18.8681 67.3677 19.1797C67.0794 19.4879 66.7164 19.7282 66.2789 19.9006C65.8448 20.0696 65.3493 20.1541 64.7924 20.1541Z" fill="#1C4980"/>
<defs>
<clipPath id="clip0_0_582">
<rect width="20" height="20" fill="white" transform="translate(6 5)"/>
</clipPath>
</defs>
</svg>
